<svg width="241" height="250" viewBox="0 0 241 250" fill="none" xmlns="http://www.w3.org/2000/svg">
<rect width="241" height="23" rx="2" fill="white"/>
<rect y="227" width="241" height="23" rx="2" fill="white"/>
<rect x="37" width="168" height="250" fill="white"/>
<rect x="120" width="85" height="250" fill="#EDEDED"/>
<rect x="202" width="39" height="23" rx="2" fill="#EDEDED"/>
<rect x="202" y="227" width="39" height="23" rx="2" fill="#EDEDED"/>
<path d="M88.8 140C83.4 140 78.6667 139.067 74.6 137.2C70.4667 135.4 67.0333 132.867 64.3 129.6C61.5667 126.4 59.5 122.667 58.1 118.4C56.7 114.2 56 109.733 56 105C56 98.6 57.2333 92.7333 59.7 87.4C62.1667 82.1333 65.8333 77.9 70.7 74.7C75.5667 71.5667 81.6 70 88.8 70H116.2L116.2 140H88.8ZM89.3 80.4C84.0333 80.4 79.7667 81.5 76.5 83.7C73.2333 85.9667 70.8333 88.9667 69.3 92.7C67.7667 96.4333 67 100.533 67 105C67 109.4 67.7667 113.467 69.3 117.2C70.8333 120.933 73.2333 123.933 76.5 126.2C79.7667 128.467 84.0333 129.6 89.3 129.6H105.4L105.4 80.4H89.3Z" fill="black"/>
<path d="M153.2 70C158.6 70 163.333 70.9333 167.4 72.8C171.533 74.6 174.967 77.1333 177.7 80.4C180.433 83.6 182.5 87.3333 183.9 91.6C185.3 95.8 186 100.267 186 105C186 111.4 184.767 117.267 182.3 122.6C179.833 127.867 176.167 132.1 171.3 135.3C166.433 138.433 160.4 140 153.2 140H125.8V70H153.2ZM152.7 129.6C157.967 129.6 162.233 128.5 165.5 126.3C168.767 124.033 171.167 121.033 172.7 117.3C174.233 113.567 175 109.467 175 105C175 100.6 174.233 96.5333 172.7 92.8C171.167 89.0667 168.767 86.0667 165.5 83.8C162.233 81.5333 157.967 80.4 152.7 80.4H136.6V129.6H152.7Z" fill="black"/>
<path d="M69.6 156C72.3 156 74.6667 156.467 76.7 157.4C78.7667 158.3 80.4833 159.567 81.85 161.2C83.2167 162.8 84.25 164.667 84.95 166.8C85.65 168.9 86 171.133 86 173.5C86 176.7 85.3833 179.633 84.15 182.3C82.9167 184.933 81.0833 187.05 78.65 188.65C76.2167 190.217 73.2 191 69.6 191H55.9V156H69.6ZM69.35 185.8C71.9833 185.8 74.1167 185.25 75.75 184.15C77.3833 183.017 78.5833 181.517 79.35 179.65C80.1167 177.783 80.5 175.733 80.5 173.5C80.5 171.3 80.1167 169.267 79.35 167.4C78.5833 165.533 77.3833 164.033 75.75 162.9C74.1167 161.767 71.9833 161.2 69.35 161.2H61.3V185.8H69.35ZM93.1258 191.55C91.9591 191.55 91.0924 191.217 90.5258 190.55C89.9591 189.85 89.6758 188.933 89.6758 187.8C89.6758 186.833 89.9591 185.967 90.5258 185.2C91.0924 184.433 91.9591 184.05 93.1258 184.05C94.2924 184.05 95.1591 184.4 95.7258 185.1C96.2924 185.767 96.5758 186.667 96.5758 187.8C96.5758 188.733 96.2924 189.6 95.7258 190.4C95.1591 191.167 94.2924 191.55 93.1258 191.55ZM109.003 156L120.453 174.65L132.103 156H137.103V191H131.703V176.65C131.703 174.55 131.736 172.567 131.803 170.7C131.903 168.8 132.053 166.917 132.253 165.05L121.953 180.95H118.653L108.603 165.1C108.803 166.967 108.936 168.833 109.003 170.7C109.069 172.567 109.103 174.55 109.103 176.65V191H103.703V156H109.003ZM147.716 191.55C146.549 191.55 145.682 191.217 145.116 190.55C144.549 189.85 144.266 188.933 144.266 187.8C144.266 186.833 144.549 185.967 145.116 185.2C145.682 184.433 146.549 184.05 147.716 184.05C148.882 184.05 149.749 184.4 150.316 185.1C150.882 185.767 151.166 186.667 151.166 187.8C151.166 188.733 150.882 189.6 150.316 190.4C149.749 191.167 148.882 191.55 147.716 191.55ZM171.993 156C174.693 156 177.059 156.467 179.093 157.4C181.159 158.3 182.876 159.567 184.243 161.2C185.609 162.8 186.643 164.667 187.343 166.8C188.043 168.9 188.393 171.133 188.393 173.5C188.393 176.7 187.776 179.633 186.543 182.3C185.309 184.933 183.476 187.05 181.043 188.65C178.609 190.217 175.593 191 171.993 191H158.293V156H171.993ZM171.743 185.8C174.376 185.8 176.509 185.25 178.143 184.15C179.776 183.017 180.976 181.517 181.743 179.65C182.509 177.783 182.893 175.733 182.893 173.5C182.893 171.3 182.509 169.267 181.743 167.4C180.976 165.533 179.776 164.033 178.143 162.9C176.509 161.767 174.376 161.2 171.743 161.2H163.693V185.8H171.743Z" fill="black"/>
</svg>
